<?xml version="1.0" encoding="utf-8"?>
<!-- Generator: Adobe Illustrator 15.1.0, SVG Export Plug-In . SVG Version: 6.00 Build 0)  -->
<!DOCTYPE svg PUBLIC "-//W3C//DTD SVG 1.1//EN" "http://www.w3.org/Graphics/SVG/1.1/DTD/svg11.dtd">
<svg version="1.1" id="Layer_1" xmlns="http://www.w3.org/2000/svg" xmlns:xlink="http://www.w3.org/1999/xlink" x="0px" y="0px"
	 width="145px" height="122px" viewBox="327.5 339 145 122" enable-background="new 327.5 339 145 122" xml:space="preserve">
<g id="is">
	<path fill="#FFFFFF" d="M348.382,427.647c-0.768-0.257-17.166-8.2-17.934-8.712c-1.026-0.768,2.305-1.793,3.075-2.818
		c0.768-1.279,0-5.125,1.28-4.611c2.049,0.768,0.768,4.1,2.049,5.637c0.256,0.514,0.513-1.279,1.281-1.279
		c2.049-0.258,4.356,1.537,6.149,0.768c7.942-3.074-2.562-5.893,7.173-6.662c1.795,0,3.587,1.281,5.38,1.537
		c1.281,0.256-2.049-1.793-3.074-2.305c-0.512,0-1.024,0-1.538,0c-2.049-0.257-4.1,0.256-5.892-0.514
		c-1.281-0.768,3.075,0.514,4.099-0.513c0.513-0.513-2.049-0.768-1.794-1.538c0-1.281,1.025-2.305,2.306-2.817
		c0.768-0.258,2.049,0.513,3.075,0.513c1.794-0.256,3.843-0.513,5.38-1.794c0.769-0.513-2.049-0.257-2.818-0.768
		c-0.768-0.257-7.173,2.818-8.967,2.562c-1.281-0.256,0.768-2.818,1.024-4.101c0-1.537-1.024-2.818-0.768-4.355
		c0.256-1.537,3.075-2.562,2.562-4.355c-0.256-1.024-2.562,0.513-3.587,0c-0.769-0.257-0.512-2.306-1.281-1.793
		c-0.255,0.255,0.769,1.537,0.257,1.281c-2.049-1.026-4.1-4.357-5.894-5.638c-0.256-0.513-1.024-0.257-1.537-0.257
		s-1.024,0.769-1.281,0.513c-0.513-0.256-0.256-1.537-1.024-1.794c-1.026-0.509-15.117-0.509-4.868-5.376
		c2.818-1.282,2.306,1.281,4.867,2.818c2.305,1.281,5.893-2.05,8.199-0.769c1.025,0.513-1.793,2.562-0.768,3.33
		c0.768,0.769,1.281-1.537,2.306-1.792c1.794-0.514,3.843-1.538,5.379-0.514c1.025,1.025-0.513,3.075-0.255,4.356
		c0,0.768,0-1.281,0.255-1.538c1.281-1.537,20.498,11.017,13.837,0c-1.026-1.537-3.588,1.281-5.638,1.025
		c-2.305-0.257-4.1-3.075-5.124-5.124c0,0,0.257-0.257,0.513-0.513c2.818-2.051,7.43-2.563,10.505-2.819
		c1.538,0,3.331,1.538,4.355,0.255c2.049-1.794-7.687-1.024-7.43-3.843c0.257-1.794,5.125-1.024,5.125-3.075
		c-0.257-12.042-8.968,1.281-9.48-1.024c-0.257-1.537,1.024-3.075,0.513-4.356c-0.257-0.513-1.024,1.024-1.538,1.024
		c-0.513,0,0.514-1.281,0-1.281c-1.793,0.513-1.793,3.588-3.074,0.257c-0.257-0.257,0.256-1.281,0-1.281
		c-1.024,0.769-1.024,2.562-2.306,2.819c-0.769,0-0.513-1.795-1.281-2.05c-1.538-0.513-8.71,3.075-8.967-1.024
		c0-0.769,1.281-0.769,1.281-1.538c-0.769-2.306-6.919-2.048-6.406-4.611c2.049-10.761,8.2,4.611,9.479,3.843
		c3.587-2.306-4.098-9.736,1.026-9.736c4.61-0.257,1.537,17.166,7.43,9.224c0.768-1.025-3.075-2.306-2.05-3.075
		c1.025-1.281,3.844,1.538,5.125,0.257c0.768-1.281-3.331,0-4.355-1.025c-1.54-1.537-2.051-3.844-2.307-5.893
		c-1.024-8.712,4.868,7.943,7.174,5.38c0.769-0.767-7.943-7.686-4.1-9.48c1.794-0.769,3.075,4.1,4.868,3.33
		c1.024-0.767-4.868-8.967,2.562-6.405c6.149,2.306-0.768,13.067,6.149,17.422c0,0.256,4.356-1.794,4.611-6.918
		c0-1.025-1.537-0.513-2.049-1.281c-0.769-0.768-3.586-5.637-2.562-7.173c1.794-2.05,5.381,1.793,7.942,3.074
		c0.77,0.257-2.306-0.512-2.306-1.28c-0.255-0.768,1.281-0.512,1.794-0.768c0.257-0.257,0.257-0.769,0-0.769
		c-3.33,0.257-3.074,5.381-6.918-3.075c-3.33-7.43,3.844-1.794,4.1-1.794c0,0,0.257-0.257,0.257-0.513c0-0.512-0.513-1.537,0-1.281
		c0.768,0.769,0.768,2.306,1.794,3.075c1.024,0.769,2.819,0.513,3.844,1.281c2.562,2.05-1.281,4.611-1.024,5.893
		c0,0.512,1.28,0,1.793,0.257c0.257,0.255,2.05,1.793,1.538,2.818c-0.512,0.256-1.793,0-1.538,0.512
		c0.514,1.025,2.562,0.768,2.562,2.05c0.255,1.793-2.306,3.586-1.794,5.38c0.513,1.537,4.355,0.513,4.1,2.049
		c0,1.537-3.843-1.024-4.355,0.257c-0.257,1.28,11.529,6.405-0.257,8.198c-2.049,0.513-2.818-3.075-4.868-3.843
		c-0.768-0.256,0.256,1.538,0.768,2.306c0.513,2.048,2.819,3.842,2.307,5.637c-0.513,2.048-4.356,2.048-4.612,4.099
		c-0.513,1.281,3.075,0.514,3.33,1.794c0.515,1.281-1.537,2.562-2.049,3.844c-0.513,1.537-2.305,4.611-0.769,4.868
		c5.382,1.024,5.125-9.736,8.455-11.53c10.506-5.638,3.332,1.538,3.075,2.562c-1.537,6.404,6.149-0.513,6.663-1.024
		c3.33-3.588,2.049-13.836,4.611-13.58c8.968,0.769,1.024,12.043,6.149,16.141c4.1,3.587,1.794-4.612,2.819-6.662
		c0.256-1.281,1.28-2.819,2.562-3.331c0.768-0.256,1.794,0.256,2.818,0.768c0.256,0.256,0.256,1.025,0.513,1.025
		c2.05-0.514,4.101-3.331,5.893-2.305c1.793,0.768,1.538,3.585,1.793,5.636c0,1.281-1.536,2.05-1.279,3.331
		c1.279,6.404,4.355-4.612,2.561,4.867c-0.768,5.382-2.561,2.562-1.281,7.431c2.051,8.712,2.051-16.654,4.613-17.167
		c6.66-1.793,5.123,9.224,5.637,11.787c0,0.513,0-1.281,0.512-1.538c0.258-0.256,1.281,0,1.025-0.256
		c-1.537-3.331,0.514,1.537,0.514,1.537c0.256,0,0.256-0.769,0.512-1.025c1.281-2.049,3.844-5.636,6.662-5.892
		s2.562,5.637,4.867,7.173c1.024,0.513-0.512-2.305,0.258-3.075c1.536-1.794,2.561,2.305,2.561,2.305
		c0.258,0.513-0.256-1.281,0-1.794c0.514-0.768,1.795-1.281,2.051-2.305c0.513-1.024,0-2.306,0-3.587
		c0.256-1.538,0-3.586,1.28-4.356c1.794-0.768,3.587,0.513,5.38,1.024c4.613,1.026,0.769,3.076,1.281,4.869
		c0.514,1.024,2.051,0.768,2.563,1.537c1.794,3.843-7.687,4.867,0.769,9.48c1.023,0.513,1.023-2.306,2.049-2.819
		c1.023-0.513,2.305,0.513,3.33,0c2.305-0.769,4.867-6.405,8.199-0.256c0.514,1.025-2.306,0.513-3.588,0.768
		c-3.842,0.769-5.379,0.257-7.941,4.356c-0.256,0.513,1.281,0.513,1.281,1.025c0.256,0.768-1.281,1.281-0.769,1.537
		c1.28,1.024,3.587,0.257,4.868,1.281c4.1,3.075-5.637,8.711-6.149,9.225c-0.513,0.256,1.024-0.77,1.794-0.514
		c1.793,0.514,3.586,1.793,5.123,3.074c0.258,0.258-1.28,0.258-1.28,0.77c0,0.768,1.28,1.537,1.28,2.307c0,0.512-1.023-0.258-1.28,0
		c-1.794,1.023-6.661,3.074-4.868,3.842c2.307,0.768,4.355-4.868,6.148-3.33c0.77,1.025,1.537,2.049,2.564,2.818
		c0.512,0.514,1.537-0.512,1.792,0.256c1.281,2.307,2.562,6.662-0.513,8.713c-1.537,1.023-3.844,0.768-5.381,1.536
		c-0.768,0.513-1.793,1.538-1.281,2.05c0.77,0.768,14.092,2.305,3.588,8.455c-2.307,1.28-8.199-4.101-8.199-4.357
		c-1.793-2.306,8.199,4.101,5.637,6.406c-1.281,1.023-3.33-2.562-4.61-1.537c-1.026,0.768,2.562,1.537,3.073,2.818
		c0.258,0.513-1.023,1.023-1.537,1.28c-2.305,1.024-5.381,3.844-7.173,2.05c-1.281-1.281-1.025-6.405-2.306-5.124
		c-1.281,1.536,2.818,3.843,1.793,5.637c-0.768,1.536-4.099-0.257-5.379,1.024c-1.538,1.281-0.514,4.355-1.795,5.893
		c-0.513,0.768-2.05-0.768-2.819-0.512c-1.794,0.512-2.817,2.818-4.61,3.074c-1.537,0.256-0.768-6.405-4.868-7.432
		c-1.282-0.255,0.257,2.82-0.513,4.102c-0.256,0.512-1.281-0.513-1.795,0c-0.256,0,1.025,0.768,0.77,0.768
		c-6.918,1.281-3.076-0.512-9.48,0.514c-3.331,0.512-6.15,3.33-9.48,4.611c-0.513,0.256-1.537,0.512-2.049,0.256
		c-1.795-0.768-2.307-3.586-4.1-3.586c-1.538,0.256-1.025,3.586-2.307,4.098c-1.024,0.257-1.281-1.793-2.306-2.305
		c-1.536-0.514-7.173-0.768-9.224-1.537c-3.586-1.025-3.843,5.123-4.61,5.893c-1.794,1.537-11.274,0.514-13.067-0.258
		c-4.612-1.537-8.455-8.966-10.762-11.271c-3.331-2.819-6.149-0.514-7.943-5.639c-0.257-1.28-1.538-2.817-1.024-4.099
		c0.513-1.794,5.38-2.562,3.843-3.331c-1.538-0.769-2.818,4.101-4.1,3.076c-1.537-1.281,1.794-4.101,0.769-5.894
		c-0.513-1.024-1.794,2.306-2.818,1.794c-1.794-1.024-1.794-3.587-3.332-4.867C350.431,427.647,349.407,427.904,348.382,427.647
		L348.382,427.647z"/>
</g>
</svg>
